<mxfile host="app.diagrams.net" modified="2024-04-05T20:45:22.317Z" agent="Mozilla/5.0 (Macintosh; Intel Mac OS X 10_15_7) AppleWebKit/537.36 (KHTML, like Gecko) Chrome/121.0.0.0 Safari/537.36" etag="McocYjA8vW02pqlQOSC_" version="24.2.1" type="onedrive">
  <diagram name="第 1 页" id="Vs5xut2sYJcekU_qqH-B">
    <mxGraphModel grid="1" page="1" gridSize="10" guides="1" tooltips="1" connect="1" arrows="1" fold="1" pageScale="1" pageWidth="1200" pageHeight="500" math="0" shadow="0">
      <root>
        <mxCell id="0" />
        <mxCell id="1" parent="0" />
        <mxCell id="czG_lzIJUzWWYwuwvP5E-10" style="edgeStyle=orthogonalEdgeStyle;rounded=0;orthogonalLoop=1;jettySize=auto;html=1;entryX=1;entryY=0.5;entryDx=0;entryDy=0;exitX=1;exitY=0.75;exitDx=0;exitDy=0;" edge="1" parent="1" source="czG_lzIJUzWWYwuwvP5E-2" target="czG_lzIJUzWWYwuwvP5E-3">
          <mxGeometry relative="1" as="geometry">
            <Array as="points">
              <mxPoint x="400" y="260" />
              <mxPoint x="430" y="260" />
              <mxPoint x="430" y="300" />
            </Array>
          </mxGeometry>
        </mxCell>
        <mxCell id="czG_lzIJUzWWYwuwvP5E-2" value="Filter" style="rounded=0;whiteSpace=wrap;html=1;" vertex="1" parent="1">
          <mxGeometry x="250" y="240" width="150" height="30" as="geometry" />
        </mxCell>
        <mxCell id="czG_lzIJUzWWYwuwvP5E-11" style="edgeStyle=orthogonalEdgeStyle;rounded=0;orthogonalLoop=1;jettySize=auto;html=1;entryX=0;entryY=0.75;entryDx=0;entryDy=0;" edge="1" parent="1" source="czG_lzIJUzWWYwuwvP5E-3" target="czG_lzIJUzWWYwuwvP5E-2">
          <mxGeometry relative="1" as="geometry">
            <Array as="points">
              <mxPoint x="220" y="300" />
              <mxPoint x="220" y="263" />
            </Array>
          </mxGeometry>
        </mxCell>
        <mxCell id="czG_lzIJUzWWYwuwvP5E-3" value="Decay buffer" style="whiteSpace=wrap;html=1;" vertex="1" parent="1">
          <mxGeometry x="275" y="290" width="100" height="20" as="geometry" />
        </mxCell>
        <mxCell id="czG_lzIJUzWWYwuwvP5E-15" style="edgeStyle=orthogonalEdgeStyle;rounded=0;orthogonalLoop=1;jettySize=auto;html=1;entryX=0;entryY=0.5;entryDx=0;entryDy=0;" edge="1" parent="1" source="czG_lzIJUzWWYwuwvP5E-4" target="czG_lzIJUzWWYwuwvP5E-5">
          <mxGeometry relative="1" as="geometry" />
        </mxCell>
        <mxCell id="czG_lzIJUzWWYwuwvP5E-4" value="Mix" style="ellipse;whiteSpace=wrap;html=1;aspect=fixed;" vertex="1" parent="1">
          <mxGeometry x="460" y="170" width="65" height="65" as="geometry" />
        </mxCell>
        <mxCell id="czG_lzIJUzWWYwuwvP5E-5" value="Output" style="triangle;whiteSpace=wrap;html=1;" vertex="1" parent="1">
          <mxGeometry x="560" y="162.5" width="60" height="80" as="geometry" />
        </mxCell>
        <mxCell id="czG_lzIJUzWWYwuwvP5E-12" style="edgeStyle=orthogonalEdgeStyle;rounded=0;orthogonalLoop=1;jettySize=auto;html=1;entryX=0;entryY=0.25;entryDx=0;entryDy=0;" edge="1" parent="1" source="czG_lzIJUzWWYwuwvP5E-6" target="czG_lzIJUzWWYwuwvP5E-2">
          <mxGeometry relative="1" as="geometry">
            <Array as="points">
              <mxPoint x="220" y="203" />
              <mxPoint x="220" y="248" />
            </Array>
          </mxGeometry>
        </mxCell>
        <mxCell id="czG_lzIJUzWWYwuwvP5E-6" value="Input" style="triangle;whiteSpace=wrap;html=1;" vertex="1" parent="1">
          <mxGeometry x="130" y="162.5" width="60" height="80" as="geometry" />
        </mxCell>
        <mxCell id="czG_lzIJUzWWYwuwvP5E-13" style="edgeStyle=orthogonalEdgeStyle;rounded=0;orthogonalLoop=1;jettySize=auto;html=1;entryX=-0.003;entryY=0.382;entryDx=0;entryDy=0;entryPerimeter=0;" edge="1" parent="1" source="czG_lzIJUzWWYwuwvP5E-6" target="czG_lzIJUzWWYwuwvP5E-4">
          <mxGeometry relative="1" as="geometry">
            <Array as="points">
              <mxPoint x="220" y="203" />
              <mxPoint x="220" y="160" />
              <mxPoint x="430" y="160" />
              <mxPoint x="430" y="195" />
            </Array>
          </mxGeometry>
        </mxCell>
        <mxCell id="czG_lzIJUzWWYwuwvP5E-14" style="edgeStyle=orthogonalEdgeStyle;rounded=0;orthogonalLoop=1;jettySize=auto;html=1;exitX=1;exitY=0.5;exitDx=0;exitDy=0;entryX=-0.003;entryY=0.634;entryDx=0;entryDy=0;entryPerimeter=0;" edge="1" parent="1" source="czG_lzIJUzWWYwuwvP5E-2" target="czG_lzIJUzWWYwuwvP5E-4">
          <mxGeometry relative="1" as="geometry">
            <Array as="points">
              <mxPoint x="400" y="250" />
              <mxPoint x="430" y="250" />
              <mxPoint x="430" y="211" />
            </Array>
          </mxGeometry>
        </mxCell>
        <mxCell id="czG_lzIJUzWWYwuwvP5E-16" value="Text" style="text;html=1;align=center;verticalAlign=middle;whiteSpace=wrap;rounded=0;" vertex="1" parent="1">
          <mxGeometry x="275" y="132.5" width="60" height="30" as="geometry" />
        </mxCell>
      </root>
    </mxGraphModel>
  </diagram>
</mxfile>
